<svg xmlns="http://www.w3.org/2000/svg" viewBox="0 0 512 512" width="512" height="512">
<title>ArChart</title>
<defs>
<clipPath id="L"><rect x="0" y="0" width="256" height="512"/></clipPath>
<clipPath id="R"><rect x="256" y="0" width="256" height="512"/></clipPath>
<clipPath id="tile"><rect width="512" height="512" rx="112"/></clipPath>
</defs>
<g clip-path="url(#tile)">
<rect width="256" height="512" fill="#121211"/><rect x="256" width="256" height="512" fill="#F4F3E1"/>
<g transform="translate(256 256) scale(1.0) translate(-256 -256)">
<path d="M216 112 L296 112 L432 392 L344 392 L314 330 L198 330 L168 392 L80 392 Z M256 211 L294.5 290 L217.5 290 Z" fill="#23B178" fill-rule="evenodd" clip-path="url(#L)"/>
<g clip-path="url(#R)" fill="#121211"><rect x="250" y="290" width="90" height="40"/><rect x="278.0" y="102.0" width="84" height="300" rx="42.0" transform="rotate(-25.93 320 252)"/><rect x="278.0" y="247" width="84" height="10" fill="#F4F3E1" transform="rotate(-25.93 320 252)"/></g>
</g></g></svg>